# xmcd CD database file
#
# Track frame offsets:
#	150
#	26335
#	62341
#	86462
#	113568
#	147404
#	168114
#	202468
#	245704
#	280743
#	302496
#
# Disc length: 4576 seconds
#
# Revision: 2
# Processed by: cddbd v1.5.2PL0 Copyright (c) Steve Scherf et al.
# Submitted via: CD2WAV32(JP) R3.22
#
DISCID=9011de0b
DTITLE=Pat Metheny w.Christian McBride and Antonio Sanches - Day Trip (JPN ver)
DYEAR=2008
DGENRE=Jazz
TTITLE0=Son of Thirteen
TTITLE1=At Last You're Here
TTITLE2=Let's Move
TTITLE3=Snova
TTITLE4=Calvin's Keys
TTITLE5=Is This America? (katrina 2005)
TTITLE6=Whatnot
TTITLE7=When We Were Free
TTITLE8=Dreaming Trees
TTITLE9=The Red One
TTITLE10=Day Trip
EXTD=
EXTT0=
EXTT1=
EXTT2=
EXTT3=
EXTT4=
EXTT5=
EXTT6=
EXTT7=
EXTT8=
EXTT9=
EXTT10=
PLAYORDER=
